<?xml version="1.0" encoding="UTF-8"?>
<svg xmlns="http://www.w3.org/2000/svg" xmlns:xlink="http://www.w3.org/1999/xlink" width="172px" height="20px" viewBox="0 0 172 20" version="1.1">
<defs>
<clipPath id="clip1">
  <path d="M 21 0.0625 L 24 0.0625 L 24 20 L 21 20 Z M 21 0.0625 "/>
</clipPath>
<clipPath id="clip2">
  <path d="M 27.777344 0.0625 L 171.671875 0.0625 L 171.671875 20 L 27.777344 20 Z M 27.777344 0.0625 "/>
</clipPath>
<clipPath id="clip3">
  <path d="M 0.121094 0.0625 L 16.542969 0.0625 L 16.542969 20 L 0.121094 20 Z M 0.121094 0.0625 "/>
</clipPath>
</defs>
<g id="surface1">
<g clip-path="url(#clip1)" clip-rule="nonzero">
<path style=" stroke:none;fill-rule:nonzero;fill:rgb(100%,100%,100%);fill-opacity:1;" d="M 22.160156 0 C 22.660156 0 23.0625 0.769531 23.0625 1.71875 L 23.0625 18.410156 C 23.0625 19.359375 22.660156 20.128906 22.160156 20.128906 C 21.664062 20.128906 21.261719 19.359375 21.261719 18.410156 L 21.261719 1.71875 C 21.261719 0.769531 21.664062 0 22.160156 0 Z M 22.160156 0 "/>
</g>
<g clip-path="url(#clip2)" clip-rule="nonzero">
<path style=" stroke:none;fill-rule:nonzero;fill:rgb(100%,100%,100%);fill-opacity:1;" d="M 34.730469 20.078125 C 33.339844 20.078125 32.007812 19.855469 30.738281 19.410156 C 29.464844 18.960938 28.476562 18.375 27.785156 17.640625 L 28.558594 16.117188 C 29.234375 16.792969 30.132812 17.339844 31.257812 17.757812 C 32.378906 18.179688 33.535156 18.390625 34.730469 18.390625 C 36.402344 18.390625 37.65625 18.082031 38.496094 17.464844 C 39.332031 16.851562 39.75 16.054688 39.75 15.070312 C 39.75 14.320312 39.523438 13.722656 39.070312 13.277344 C 38.617188 12.832031 38.058594 12.488281 37.398438 12.242188 C 36.742188 12.003906 35.824219 11.742188 34.648438 11.457031 C 33.242188 11.097656 32.121094 10.753906 31.28125 10.421875 C 30.445312 10.09375 29.730469 9.589844 29.136719 8.914062 C 28.539062 8.234375 28.238281 7.316406 28.238281 6.15625 C 28.238281 5.207031 28.488281 4.347656 28.984375 3.570312 C 29.484375 2.792969 30.25 2.175781 31.28125 1.710938 C 32.316406 1.246094 33.597656 1.015625 35.128906 1.015625 C 36.199219 1.015625 37.246094 1.160156 38.269531 1.453125 C 39.292969 1.75 40.179688 2.15625 40.925781 2.675781 L 40.257812 4.253906 C 39.472656 3.734375 38.636719 3.347656 37.746094 3.085938 C 36.855469 2.828125 35.984375 2.699219 35.128906 2.699219 C 33.492188 2.699219 32.257812 3.015625 31.433594 3.648438 C 30.601562 4.285156 30.1875 5.101562 30.1875 6.101562 C 30.1875 6.851562 30.414062 7.453125 30.871094 7.90625 C 31.324219 8.363281 31.894531 8.710938 32.582031 8.949219 C 33.265625 9.191406 34.1875 9.457031 35.34375 9.742188 C 36.714844 10.082031 37.824219 10.414062 38.671875 10.746094 C 39.515625 11.078125 40.230469 11.574219 40.820312 12.242188 C 41.40625 12.914062 41.699219 13.820312 41.699219 14.964844 C 41.699219 15.910156 41.449219 16.773438 40.941406 17.550781 C 40.433594 18.324219 39.652344 18.9375 38.601562 19.394531 C 37.550781 19.851562 36.261719 20.078125 34.730469 20.078125 Z M 51.609375 18.363281 C 52.484375 18.363281 53.289062 18.207031 54.023438 17.894531 C 54.765625 17.582031 55.394531 17.125 55.910156 16.515625 L 56.980469 17.75 C 56.355469 18.5 55.582031 19.070312 54.65625 19.460938 C 53.730469 19.855469 52.707031 20.050781 51.582031 20.050781 C 50.140625 20.050781 48.859375 19.742188 47.738281 19.125 C 46.617188 18.511719 45.742188 17.660156 45.121094 16.570312 C 44.496094 15.480469 44.183594 14.25 44.183594 12.875 C 44.183594 11.5 44.480469 10.269531 45.078125 9.179688 C 45.675781 8.089844 46.5 7.242188 47.550781 6.636719 C 48.601562 6.03125 49.792969 5.726562 51.128906 5.726562 C 52.375 5.726562 53.5 6.011719 54.503906 6.582031 C 55.515625 7.15625 56.316406 7.949219 56.910156 8.964844 C 57.507812 9.984375 57.824219 11.144531 57.859375 12.445312 L 46.320312 14.695312 C 46.675781 15.839844 47.324219 16.734375 48.253906 17.382812 C 49.191406 18.039062 50.308594 18.363281 51.609375 18.363281 Z M 51.128906 7.359375 C 50.148438 7.359375 49.273438 7.585938 48.496094 8.039062 C 47.722656 8.496094 47.117188 9.128906 46.679688 9.941406 C 46.246094 10.753906 46.027344 11.6875 46.027344 12.742188 C 46.027344 13.007812 46.035156 13.207031 46.054688 13.332031 L 55.964844 11.402344 C 55.75 10.226562 55.207031 9.253906 54.335938 8.496094 C 53.460938 7.738281 52.394531 7.359375 51.128906 7.359375 Z M 68.890625 5.726562 C 70.65625 5.726562 72.058594 6.238281 73.097656 7.261719 C 74.140625 8.292969 74.664062 9.789062 74.664062 11.75 L 74.664062 19.917969 L 72.765625 19.917969 L 72.765625 11.9375 C 72.765625 10.476562 72.402344 9.359375 71.671875 8.589844 C 70.941406 7.824219 69.898438 7.441406 68.546875 7.441406 C 67.03125 7.441406 65.832031 7.890625 64.949219 8.789062 C 64.070312 9.691406 63.628906 10.9375 63.628906 12.527344 L 63.628906 19.917969 L 61.734375 19.917969 L 61.734375 5.832031 L 63.550781 5.832031 L 63.550781 8.429688 C 64.066406 7.574219 64.78125 6.90625 65.699219 6.433594 C 66.617188 5.960938 67.679688 5.726562 68.890625 5.726562 Z M 79.8125 19.917969 L 79.8125 5.832031 L 81.707031 5.832031 L 81.707031 19.917969 Z M 80.773438 2.753906 C 80.382812 2.753906 80.050781 2.621094 79.785156 2.351562 C 79.519531 2.085938 79.382812 1.765625 79.382812 1.390625 C 79.382812 1.03125 79.519531 0.71875 79.785156 0.453125 C 80.050781 0.183594 80.382812 0.0507812 80.773438 0.0507812 C 81.164062 0.0507812 81.496094 0.179688 81.761719 0.4375 C 82.027344 0.695312 82.164062 1.003906 82.164062 1.363281 C 82.164062 1.753906 82.027344 2.085938 81.761719 2.351562 C 81.496094 2.621094 81.164062 2.753906 80.773438 2.753906 Z M 92.742188 20.050781 C 91.386719 20.050781 90.167969 19.742188 89.082031 19.125 C 87.996094 18.511719 87.140625 17.660156 86.515625 16.570312 C 85.894531 15.480469 85.582031 14.25 85.582031 12.875 C 85.582031 11.5 85.894531 10.269531 86.515625 9.179688 C 87.140625 8.089844 87.996094 7.242188 89.082031 6.636719 C 90.167969 6.03125 91.386719 5.726562 92.742188 5.726562 C 94.09375 5.726562 95.3125 6.03125 96.398438 6.636719 C 97.484375 7.242188 98.335938 8.089844 98.953125 9.179688 C 99.566406 10.269531 99.871094 11.5 99.871094 12.875 C 99.871094 14.25 99.566406 15.480469 98.953125 16.570312 C 98.335938 17.660156 97.484375 18.511719 96.398438 19.125 C 95.3125 19.742188 94.09375 20.050781 92.742188 20.050781 Z M 92.742188 18.363281 C 93.738281 18.363281 94.632812 18.136719 95.425781 17.683594 C 96.21875 17.226562 96.835938 16.578125 97.28125 15.742188 C 97.726562 14.902344 97.949219 13.945312 97.949219 12.875 C 97.949219 11.804688 97.726562 10.847656 97.28125 10.011719 C 96.835938 9.171875 96.21875 8.523438 95.425781 8.066406 C 94.632812 7.613281 93.738281 7.386719 92.742188 7.386719 C 91.742188 7.386719 90.847656 7.613281 90.058594 8.066406 C 89.265625 8.523438 88.640625 9.171875 88.1875 10.011719 C 87.734375 10.847656 87.503906 11.804688 87.503906 12.875 C 87.503906 13.945312 87.734375 14.902344 88.1875 15.742188 C 88.640625 16.578125 89.265625 17.226562 90.058594 17.683594 C 90.847656 18.136719 91.742188 18.363281 92.742188 18.363281 Z M 105.5625 8.589844 C 106.007812 7.644531 106.667969 6.929688 107.550781 6.449219 C 108.433594 5.96875 109.523438 5.726562 110.824219 5.726562 L 110.824219 7.574219 L 110.371094 7.546875 C 108.890625 7.546875 107.734375 8.003906 106.898438 8.914062 C 106.058594 9.824219 105.640625 11.097656 105.640625 12.742188 L 105.640625 19.917969 L 103.746094 19.917969 L 103.746094 5.832031 L 105.5625 5.832031 Z M 119.503906 20.078125 C 118.117188 20.078125 116.785156 19.855469 115.507812 19.410156 C 114.238281 18.960938 113.253906 18.375 112.558594 17.640625 L 113.335938 16.117188 C 114.011719 16.792969 114.910156 17.339844 116.03125 17.757812 C 117.15625 18.179688 118.3125 18.390625 119.503906 18.390625 C 121.179688 18.390625 122.433594 18.082031 123.269531 17.464844 C 124.109375 16.851562 124.527344 16.054688 124.527344 15.070312 C 124.527344 14.320312 124.296875 13.722656 123.84375 13.277344 C 123.390625 12.832031 122.835938 12.488281 122.175781 12.242188 C 121.515625 12.003906 120.601562 11.742188 119.425781 11.457031 C 118.019531 11.097656 116.894531 10.753906 116.058594 10.421875 C 115.222656 10.09375 114.503906 9.589844 113.90625 8.914062 C 113.3125 8.234375 113.015625 7.316406 113.015625 6.15625 C 113.015625 5.207031 113.261719 4.347656 113.761719 3.570312 C 114.261719 2.792969 115.027344 2.175781 116.058594 1.710938 C 117.09375 1.246094 118.375 1.015625 119.90625 1.015625 C 120.972656 1.015625 122.019531 1.160156 123.042969 1.453125 C 124.066406 1.75 124.953125 2.15625 125.703125 2.675781 L 125.035156 4.253906 C 124.25 3.734375 123.414062 3.347656 122.523438 3.085938 C 121.632812 2.828125 120.761719 2.699219 119.90625 2.699219 C 118.265625 2.699219 117.035156 3.015625 116.203125 3.648438 C 115.378906 4.285156 114.964844 5.101562 114.964844 6.101562 C 114.964844 6.851562 115.191406 7.453125 115.640625 7.90625 C 116.097656 8.363281 116.667969 8.710938 117.351562 8.949219 C 118.039062 9.191406 118.960938 9.457031 120.121094 9.742188 C 121.492188 10.082031 122.597656 10.414062 123.441406 10.746094 C 124.289062 11.078125 125.007812 11.574219 125.59375 12.242188 C 126.183594 12.914062 126.476562 13.820312 126.476562 14.964844 C 126.476562 15.910156 126.222656 16.773438 125.710938 17.550781 C 125.207031 18.324219 124.429688 18.9375 123.378906 19.394531 C 122.328125 19.851562 121.035156 20.078125 119.503906 20.078125 Z M 141.296875 5.832031 L 143.191406 5.832031 L 143.191406 19.917969 L 141.375 19.917969 L 141.375 17.132812 C 140.804688 18.078125 140.054688 18.800781 139.121094 19.300781 C 138.183594 19.800781 137.128906 20.050781 135.953125 20.050781 C 134.636719 20.050781 133.441406 19.746094 132.375 19.140625 C 131.304688 18.535156 130.46875 17.6875 129.863281 16.597656 C 129.257812 15.507812 128.957031 14.269531 128.957031 12.875 C 128.957031 11.484375 129.257812 10.242188 129.863281 9.152344 C 130.46875 8.066406 131.304688 7.21875 132.375 6.621094 C 133.441406 6.023438 134.636719 5.726562 135.953125 5.726562 C 137.09375 5.726562 138.121094 5.960938 139.042969 6.433594 C 139.957031 6.90625 140.707031 7.601562 141.296875 8.511719 Z M 136.113281 18.363281 C 137.09375 18.363281 137.980469 18.136719 138.773438 17.683594 C 139.566406 17.226562 140.1875 16.578125 140.644531 15.742188 C 141.097656 14.902344 141.324219 13.945312 141.324219 12.875 C 141.324219 11.804688 141.097656 10.847656 140.644531 10.011719 C 140.1875 9.171875 139.566406 8.523438 138.773438 8.066406 C 137.980469 7.613281 137.09375 7.386719 136.113281 7.386719 C 135.117188 7.386719 134.222656 7.613281 133.433594 8.066406 C 132.636719 8.523438 132.015625 9.171875 131.5625 10.011719 C 131.105469 10.847656 130.878906 11.804688 130.878906 12.875 C 130.878906 13.945312 131.105469 14.902344 131.5625 15.742188 C 132.015625 16.578125 132.636719 17.226562 133.433594 17.683594 C 134.222656 18.136719 135.117188 18.363281 136.113281 18.363281 Z M 166.003906 5.726562 C 167.765625 5.726562 169.152344 6.234375 170.160156 7.253906 C 171.164062 8.269531 171.667969 9.769531 171.667969 11.75 L 171.667969 19.917969 L 169.769531 19.917969 L 169.769531 11.9375 C 169.769531 10.476562 169.417969 9.359375 168.71875 8.589844 C 168.011719 7.824219 167.019531 7.441406 165.738281 7.441406 C 164.277344 7.441406 163.128906 7.890625 162.292969 8.789062 C 161.453125 9.691406 161.035156 10.9375 161.035156 12.527344 L 161.035156 19.917969 L 159.140625 19.917969 L 159.140625 11.9375 C 159.140625 10.476562 158.789062 9.359375 158.085938 8.589844 C 157.382812 7.824219 156.378906 7.441406 155.078125 7.441406 C 153.636719 7.441406 152.492188 7.890625 151.648438 8.789062 C 150.800781 9.691406 150.378906 10.9375 150.378906 12.527344 L 150.378906 19.917969 L 148.480469 19.917969 L 148.480469 5.832031 L 150.296875 5.832031 L 150.296875 8.402344 C 150.796875 7.546875 151.492188 6.886719 152.382812 6.421875 C 153.273438 5.957031 154.296875 5.726562 155.453125 5.726562 C 156.628906 5.726562 157.648438 5.976562 158.515625 6.476562 C 159.375 6.976562 160.019531 7.714844 160.449219 8.699219 C 160.964844 7.769531 161.707031 7.042969 162.679688 6.515625 C 163.648438 5.988281 164.757812 5.726562 166.003906 5.726562 Z M 166.003906 5.726562 "/>
</g>
<path style=" stroke:none;fill-rule:nonzero;fill:rgb(54.509804%,42.352941%,89.803922%);fill-opacity:1;" d="M 8.113281 15.308594 C 8.03125 15.265625 7.980469 15.199219 7.96875 15.132812 C 7.863281 15.214844 7.847656 15.316406 8.007812 15.402344 C 8.007812 15.402344 8.011719 15.40625 8.015625 15.40625 C 8.210938 15.503906 8.488281 15.535156 8.6875 15.410156 C 8.691406 15.410156 8.695312 15.40625 8.699219 15.402344 C 8.84375 15.308594 8.859375 15.230469 8.773438 15.15625 C 8.757812 15.203125 8.722656 15.25 8.660156 15.289062 C 8.515625 15.378906 8.273438 15.386719 8.113281 15.308594 Z M 8.113281 15.308594 "/>
<path style=" stroke:none;fill-rule:nonzero;fill:rgb(54.509804%,42.352941%,89.803922%);fill-opacity:1;" d="M 9.742188 14.296875 C 9.65625 14.253906 9.605469 14.191406 9.597656 14.125 C 9.492188 14.207031 9.472656 14.3125 9.644531 14.398438 C 9.695312 14.425781 9.753906 14.445312 9.8125 14.460938 C 9.933594 14.492188 10.066406 14.496094 10.183594 14.460938 C 10.230469 14.445312 10.273438 14.429688 10.3125 14.402344 C 10.472656 14.304688 10.488281 14.222656 10.398438 14.148438 C 10.386719 14.195312 10.351562 14.242188 10.289062 14.277344 C 10.144531 14.371094 9.902344 14.378906 9.742188 14.296875 Z M 9.742188 14.296875 "/>
<path style=" stroke:none;fill-rule:nonzero;fill:rgb(54.509804%,42.352941%,89.803922%);fill-opacity:1;" d="M 4.792969 14.460938 C 4.65625 14.515625 4.476562 14.515625 4.339844 14.460938 C 4.328125 14.457031 4.316406 14.453125 4.308594 14.445312 C 4.222656 14.40625 4.171875 14.339844 4.164062 14.273438 C 4.089844 14.328125 4.058594 14.398438 4.101562 14.460938 C 4.121094 14.492188 4.15625 14.519531 4.207031 14.546875 C 4.40625 14.644531 4.683594 14.675781 4.878906 14.550781 C 4.929688 14.519531 4.96875 14.488281 4.988281 14.460938 C 5.039062 14.402344 5.027344 14.347656 4.964844 14.296875 C 4.953125 14.34375 4.917969 14.390625 4.855469 14.429688 C 4.835938 14.441406 4.816406 14.453125 4.792969 14.460938 Z M 4.792969 14.460938 "/>
<path style=" stroke:none;fill-rule:nonzero;fill:rgb(54.509804%,42.352941%,89.803922%);fill-opacity:1;" d="M 2.679688 15.457031 C 2.648438 15.441406 2.625 15.421875 2.601562 15.402344 C 2.566406 15.367188 2.542969 15.324219 2.535156 15.28125 C 2.488281 15.320312 2.457031 15.359375 2.453125 15.402344 C 2.449219 15.457031 2.488281 15.507812 2.582031 15.554688 C 2.777344 15.652344 3.054688 15.683594 3.25 15.558594 C 3.34375 15.503906 3.386719 15.453125 3.390625 15.402344 C 3.394531 15.367188 3.375 15.335938 3.335938 15.304688 C 3.328125 15.339844 3.304688 15.371094 3.273438 15.402344 C 3.257812 15.414062 3.246094 15.425781 3.226562 15.4375 C 3.082031 15.527344 2.839844 15.535156 2.679688 15.457031 Z M 2.679688 15.457031 "/>
<path style=" stroke:none;fill-rule:nonzero;fill:rgb(54.509804%,42.352941%,89.803922%);fill-opacity:1;" d="M 5.160156 16.246094 C 5.386719 16.105469 4.9375 15.9375 4.703125 16.085938 C 4.476562 16.226562 4.929688 16.394531 5.160156 16.246094 Z M 5.160156 16.246094 "/>
<path style=" stroke:none;fill-rule:nonzero;fill:rgb(54.509804%,42.352941%,89.803922%);fill-opacity:1;" d="M 5.976562 15.742188 C 6.203125 15.601562 5.75 15.433594 5.519531 15.582031 C 5.292969 15.722656 5.742188 15.890625 5.976562 15.742188 Z M 5.976562 15.742188 "/>
<path style=" stroke:none;fill-rule:nonzero;fill:rgb(54.509804%,42.352941%,89.803922%);fill-opacity:1;" d="M 7.785156 15.695312 C 8.011719 15.550781 7.5625 15.386719 7.332031 15.53125 C 7.101562 15.675781 7.554688 15.839844 7.785156 15.695312 Z M 7.785156 15.695312 "/>
<path style=" stroke:none;fill-rule:nonzero;fill:rgb(54.509804%,42.352941%,89.803922%);fill-opacity:1;" d="M 7.300781 15.8125 C 7.214844 15.769531 7.164062 15.703125 7.152344 15.636719 C 7.046875 15.71875 7.03125 15.824219 7.199219 15.910156 C 7.398438 16.007812 7.675781 16.039062 7.871094 15.914062 C 8.03125 15.816406 8.046875 15.738281 7.957031 15.660156 C 7.945312 15.707031 7.90625 15.753906 7.847656 15.792969 C 7.703125 15.882812 7.460938 15.890625 7.300781 15.8125 Z M 7.300781 15.8125 "/>
<path style=" stroke:none;fill-rule:nonzero;fill:rgb(54.509804%,42.352941%,89.803922%);fill-opacity:1;" d="M 3.675781 15.910156 C 3.59375 15.867188 3.542969 15.804688 3.53125 15.738281 C 3.425781 15.816406 3.410156 15.925781 3.578125 16.011719 C 3.773438 16.109375 4.050781 16.140625 4.25 16.015625 C 4.40625 15.914062 4.421875 15.835938 4.335938 15.757812 C 4.320312 15.808594 4.285156 15.851562 4.226562 15.890625 C 4.078125 15.984375 3.835938 15.992188 3.675781 15.910156 Z M 3.675781 15.910156 "/>
<path style=" stroke:none;fill-rule:nonzero;fill:rgb(54.509804%,42.352941%,89.803922%);fill-opacity:1;" d="M 5.671875 16.820312 C 5.585938 16.777344 5.535156 16.714844 5.527344 16.648438 C 5.421875 16.726562 5.402344 16.835938 5.574219 16.917969 C 5.769531 17.019531 6.046875 17.046875 6.242188 16.921875 C 6.402344 16.824219 6.417969 16.746094 6.328125 16.667969 C 6.316406 16.714844 6.28125 16.761719 6.21875 16.800781 C 6.074219 16.894531 5.832031 16.898438 5.671875 16.820312 Z M 5.671875 16.820312 "/>
<path style=" stroke:none;fill-rule:nonzero;fill:rgb(54.509804%,42.352941%,89.803922%);fill-opacity:1;" d="M 6.484375 16.316406 C 6.402344 16.273438 6.351562 16.210938 6.339844 16.140625 C 6.234375 16.222656 6.21875 16.328125 6.386719 16.414062 C 6.582031 16.515625 6.859375 16.542969 7.058594 16.417969 C 7.214844 16.320312 7.230469 16.242188 7.144531 16.164062 C 7.128906 16.210938 7.09375 16.257812 7.035156 16.296875 C 6.886719 16.386719 6.644531 16.394531 6.484375 16.316406 Z M 6.484375 16.316406 "/>
<path style=" stroke:none;fill-rule:nonzero;fill:rgb(54.509804%,42.352941%,89.803922%);fill-opacity:1;" d="M 6.15625 16.703125 C 6.382812 16.558594 5.933594 16.394531 5.703125 16.539062 C 5.476562 16.683594 5.925781 16.847656 6.15625 16.703125 Z M 6.15625 16.703125 "/>
<path style=" stroke:none;fill-rule:nonzero;fill:rgb(54.509804%,42.352941%,89.803922%);fill-opacity:1;" d="M 4.675781 16.363281 C 4.589844 16.320312 4.539062 16.257812 4.527344 16.191406 C 4.421875 16.273438 4.40625 16.378906 4.574219 16.464844 C 4.769531 16.5625 5.050781 16.59375 5.246094 16.46875 C 5.402344 16.371094 5.421875 16.289062 5.332031 16.214844 C 5.316406 16.261719 5.28125 16.308594 5.222656 16.34375 C 5.074219 16.4375 4.835938 16.445312 4.675781 16.363281 Z M 4.675781 16.363281 "/>
<path style=" stroke:none;fill-rule:nonzero;fill:rgb(54.509804%,42.352941%,89.803922%);fill-opacity:1;" d="M 6.972656 16.199219 C 7.199219 16.054688 6.746094 15.890625 6.515625 16.035156 C 6.289062 16.179688 6.742188 16.34375 6.972656 16.199219 Z M 6.972656 16.199219 "/>
<path style=" stroke:none;fill-rule:nonzero;fill:rgb(54.509804%,42.352941%,89.803922%);fill-opacity:1;" d="M 5.488281 15.859375 C 5.402344 15.816406 5.351562 15.753906 5.34375 15.6875 C 5.238281 15.769531 5.21875 15.875 5.390625 15.960938 C 5.585938 16.058594 5.863281 16.089844 6.058594 15.964844 C 6.21875 15.867188 6.234375 15.785156 6.144531 15.707031 C 6.132812 15.757812 6.097656 15.804688 6.035156 15.839844 C 5.890625 15.933594 5.648438 15.941406 5.488281 15.859375 Z M 5.488281 15.859375 "/>
<path style=" stroke:none;fill-rule:nonzero;fill:rgb(54.509804%,42.352941%,89.803922%);fill-opacity:1;" d="M 4.164062 15.792969 C 4.390625 15.648438 3.9375 15.484375 3.707031 15.628906 C 3.480469 15.773438 3.933594 15.9375 4.164062 15.792969 Z M 4.164062 15.792969 "/>
<path style=" stroke:none;fill-rule:nonzero;fill:rgb(54.509804%,42.352941%,89.803922%);fill-opacity:1;" d="M 3.980469 14.832031 C 4.207031 14.691406 3.753906 14.527344 3.523438 14.671875 C 3.296875 14.816406 3.75 14.980469 3.980469 14.832031 Z M 3.980469 14.832031 "/>
<path style=" stroke:none;fill-rule:nonzero;fill:rgb(54.509804%,42.352941%,89.803922%);fill-opacity:1;" d="M 9.414062 14.683594 C 9.640625 14.542969 9.191406 14.378906 8.957031 14.523438 C 8.730469 14.664062 9.183594 14.832031 9.414062 14.683594 Z M 9.414062 14.683594 "/>
<path style=" stroke:none;fill-rule:nonzero;fill:rgb(54.509804%,42.352941%,89.803922%);fill-opacity:1;" d="M 8.929688 14.800781 C 8.84375 14.761719 8.792969 14.695312 8.78125 14.628906 C 8.675781 14.710938 8.660156 14.816406 8.828125 14.902344 C 9.023438 15 9.300781 15.03125 9.5 14.90625 C 9.65625 14.808594 9.675781 14.726562 9.585938 14.652344 C 9.570312 14.699219 9.535156 14.746094 9.476562 14.785156 C 9.328125 14.875 9.089844 14.882812 8.929688 14.800781 Z M 8.929688 14.800781 "/>
<path style=" stroke:none;fill-rule:nonzero;fill:rgb(54.509804%,42.352941%,89.803922%);fill-opacity:1;" d="M 5.304688 14.902344 C 5.222656 14.859375 5.171875 14.796875 5.160156 14.730469 C 5.054688 14.808594 5.035156 14.917969 5.207031 15 C 5.402344 15.101562 5.679688 15.128906 5.878906 15.007812 C 6.035156 14.90625 6.050781 14.828125 5.964844 14.75 C 5.949219 14.796875 5.914062 14.84375 5.851562 14.882812 C 5.707031 14.976562 5.464844 14.980469 5.304688 14.902344 Z M 5.304688 14.902344 "/>
<path style=" stroke:none;fill-rule:nonzero;fill:rgb(54.509804%,42.352941%,89.803922%);fill-opacity:1;" d="M 4.976562 15.289062 C 5.203125 15.144531 4.753906 14.980469 4.523438 15.125 C 4.292969 15.269531 4.746094 15.433594 4.976562 15.289062 Z M 4.976562 15.289062 "/>
<path style=" stroke:none;fill-rule:nonzero;fill:rgb(54.509804%,42.352941%,89.803922%);fill-opacity:1;" d="M 7.601562 14.734375 C 7.828125 14.589844 7.378906 14.425781 7.148438 14.574219 C 6.921875 14.714844 7.371094 14.878906 7.601562 14.734375 Z M 7.601562 14.734375 "/>
<path style=" stroke:none;fill-rule:nonzero;fill:rgb(54.509804%,42.352941%,89.803922%);fill-opacity:1;" d="M 6.789062 15.238281 C 7.015625 15.09375 6.5625 14.929688 6.332031 15.078125 C 6.105469 15.21875 6.558594 15.382812 6.789062 15.238281 Z M 6.789062 15.238281 "/>
<path style=" stroke:none;fill-rule:nonzero;fill:rgb(54.509804%,42.352941%,89.803922%);fill-opacity:1;" d="M 7.117188 14.851562 C 7.03125 14.808594 6.980469 14.746094 6.972656 14.679688 C 6.867188 14.757812 6.847656 14.867188 7.015625 14.953125 C 7.214844 15.050781 7.492188 15.082031 7.6875 14.957031 C 7.847656 14.855469 7.863281 14.777344 7.773438 14.699219 C 7.761719 14.75 7.726562 14.796875 7.664062 14.832031 C 7.519531 14.925781 7.277344 14.933594 7.117188 14.851562 Z M 7.117188 14.851562 "/>
<path style=" stroke:none;fill-rule:nonzero;fill:rgb(54.509804%,42.352941%,89.803922%);fill-opacity:1;" d="M 6.675781 15.402344 L 6.671875 15.402344 C 6.601562 15.414062 6.523438 15.414062 6.449219 15.402344 C 6.394531 15.394531 6.347656 15.378906 6.300781 15.355469 C 6.21875 15.3125 6.167969 15.25 6.15625 15.183594 C 6.074219 15.246094 6.042969 15.328125 6.125 15.402344 L 6.121094 15.402344 C 6.144531 15.421875 6.167969 15.4375 6.203125 15.457031 C 6.398438 15.554688 6.675781 15.585938 6.875 15.460938 C 6.90625 15.441406 6.933594 15.421875 6.953125 15.402344 C 7.035156 15.328125 7.03125 15.265625 6.960938 15.203125 C 6.945312 15.253906 6.910156 15.300781 6.851562 15.335938 C 6.800781 15.367188 6.738281 15.390625 6.675781 15.402344 Z M 6.675781 15.402344 "/>
<path style=" stroke:none;fill-rule:nonzero;fill:rgb(54.509804%,42.352941%,89.803922%);fill-opacity:1;" d="M 3.492188 14.949219 C 3.410156 14.910156 3.359375 14.84375 3.347656 14.777344 C 3.242188 14.859375 3.226562 14.964844 3.394531 15.050781 C 3.589844 15.148438 3.867188 15.179688 4.066406 15.054688 C 4.222656 14.957031 4.238281 14.875 4.152344 14.800781 C 4.136719 14.847656 4.101562 14.894531 4.042969 14.933594 C 3.894531 15.023438 3.652344 15.03125 3.492188 14.949219 Z M 3.492188 14.949219 "/>
<path style=" stroke:none;fill-rule:nonzero;fill:rgb(54.509804%,42.352941%,89.803922%);fill-opacity:1;" d="M 11.144531 14.625 L 9.914062 15.402344 L 9.15625 15.878906 L 10.964844 16.835938 C 10.984375 16.847656 11 16.855469 11.023438 16.855469 L 11.050781 16.84375 L 12.996094 15.609375 L 12.605469 15.402344 L 11.195312 14.652344 C 11.191406 14.648438 11.152344 14.628906 11.144531 14.625 Z M 11.144531 14.625 "/>
<path style=" stroke:none;fill-rule:nonzero;fill:rgb(54.509804%,42.352941%,89.803922%);fill-opacity:1;" d="M 5.792969 14.785156 C 6.019531 14.640625 5.566406 14.476562 5.335938 14.621094 C 5.109375 14.765625 5.558594 14.929688 5.792969 14.785156 Z M 5.792969 14.785156 "/>
<path style=" stroke:none;fill-rule:nonzero;fill:rgb(54.509804%,42.352941%,89.803922%);fill-opacity:1;" d="M 7.660156 14.460938 L 7.644531 14.460938 C 7.660156 14.46875 7.675781 14.480469 7.691406 14.492188 C 7.679688 14.480469 7.667969 14.472656 7.660156 14.460938 Z M 7.660156 14.460938 "/>
<path style=" stroke:none;fill-rule:nonzero;fill:rgb(54.509804%,42.352941%,89.803922%);fill-opacity:1;" d="M 8.601562 15.1875 C 8.828125 15.046875 8.375 14.882812 8.144531 15.027344 C 7.917969 15.171875 8.367188 15.335938 8.601562 15.1875 Z M 8.601562 15.1875 "/>
<path style=" stroke:none;fill-rule:nonzero;fill:rgb(54.509804%,42.352941%,89.803922%);fill-opacity:1;" d="M 3.167969 15.335938 C 3.394531 15.195312 2.941406 15.03125 2.710938 15.175781 C 2.484375 15.320312 2.933594 15.484375 3.167969 15.335938 Z M 3.167969 15.335938 "/>
<path style=" stroke:none;fill-rule:nonzero;fill:rgb(54.509804%,42.352941%,89.803922%);fill-opacity:1;" d="M 6.121094 14.398438 C 6.035156 14.355469 5.984375 14.292969 5.972656 14.222656 C 5.882812 14.292969 5.855469 14.382812 5.960938 14.460938 C 5.976562 14.472656 5.996094 14.484375 6.019531 14.496094 C 6.214844 14.597656 6.492188 14.625 6.691406 14.503906 C 6.714844 14.488281 6.734375 14.476562 6.75 14.460938 C 6.851562 14.378906 6.851562 14.3125 6.777344 14.246094 C 6.761719 14.292969 6.726562 14.339844 6.667969 14.378906 C 6.519531 14.472656 6.28125 14.476562 6.121094 14.398438 Z M 6.121094 14.398438 "/>
<path style=" stroke:none;fill-rule:nonzero;fill:rgb(54.509804%,42.352941%,89.803922%);fill-opacity:1;" d="M 8.746094 13.84375 C 8.660156 13.800781 8.609375 13.738281 8.597656 13.671875 C 8.492188 13.75 8.476562 13.859375 8.644531 13.945312 C 8.839844 14.042969 9.121094 14.074219 9.316406 13.949219 C 9.476562 13.847656 9.492188 13.769531 9.402344 13.691406 C 9.390625 13.742188 9.351562 13.785156 9.292969 13.824219 C 9.144531 13.917969 8.90625 13.925781 8.746094 13.84375 Z M 8.746094 13.84375 "/>
<path style=" stroke:none;fill-rule:nonzero;fill:rgb(54.509804%,42.352941%,89.803922%);fill-opacity:1;" d="M 7.929688 14.347656 C 7.847656 14.304688 7.796875 14.242188 7.785156 14.175781 C 7.679688 14.253906 7.664062 14.363281 7.832031 14.449219 C 7.839844 14.453125 7.851562 14.457031 7.859375 14.460938 C 8.046875 14.546875 8.300781 14.570312 8.488281 14.460938 C 8.492188 14.457031 8.5 14.457031 8.503906 14.453125 C 8.660156 14.351562 8.675781 14.273438 8.589844 14.195312 C 8.574219 14.246094 8.539062 14.289062 8.480469 14.328125 C 8.332031 14.421875 8.089844 14.429688 7.929688 14.347656 Z M 7.929688 14.347656 "/>
<path style=" stroke:none;fill-rule:nonzero;fill:rgb(54.509804%,42.352941%,89.803922%);fill-opacity:1;" d="M 8.417969 14.230469 C 8.644531 14.085938 8.191406 13.921875 7.960938 14.070312 C 7.734375 14.210938 8.1875 14.375 8.417969 14.230469 Z M 8.417969 14.230469 "/>
<path style=" stroke:none;fill-rule:nonzero;fill:rgb(54.509804%,42.352941%,89.803922%);fill-opacity:1;" d="M 9.046875 12.765625 C 9.273438 12.625 8.824219 12.460938 8.59375 12.605469 C 8.367188 12.75 8.816406 12.914062 9.046875 12.765625 Z M 9.046875 12.765625 "/>
<path style=" stroke:none;fill-rule:nonzero;fill:rgb(54.509804%,42.352941%,89.803922%);fill-opacity:1;" d="M 9.375 12.378906 C 9.292969 12.339844 9.242188 12.273438 9.230469 12.207031 C 9.125 12.289062 9.105469 12.394531 9.277344 12.480469 C 9.472656 12.578125 9.75 12.609375 9.949219 12.484375 C 10.105469 12.386719 10.121094 12.304688 10.035156 12.230469 C 10.019531 12.277344 9.984375 12.324219 9.921875 12.363281 C 9.777344 12.453125 9.535156 12.460938 9.375 12.378906 Z M 9.375 12.378906 "/>
<path style=" stroke:none;fill-rule:nonzero;fill:rgb(54.509804%,42.352941%,89.803922%);fill-opacity:1;" d="M 10.089844 11.976562 C 10.285156 12.074219 10.5625 12.105469 10.761719 11.980469 C 10.917969 11.882812 10.9375 11.800781 10.847656 11.726562 C 10.832031 11.773438 10.796875 11.820312 10.738281 11.855469 C 10.589844 11.949219 10.351562 11.957031 10.191406 11.875 C 10.105469 11.832031 10.054688 11.769531 10.042969 11.703125 C 9.9375 11.785156 9.921875 11.890625 10.089844 11.976562 Z M 10.089844 11.976562 "/>
<path style=" stroke:none;fill-rule:nonzero;fill:rgb(54.509804%,42.352941%,89.803922%);fill-opacity:1;" d="M 9.863281 12.261719 C 10.089844 12.121094 9.636719 11.957031 9.40625 12.101562 C 9.179688 12.242188 9.628906 12.410156 9.863281 12.261719 Z M 9.863281 12.261719 "/>
<path style=" stroke:none;fill-rule:nonzero;fill:rgb(54.509804%,42.352941%,89.803922%);fill-opacity:1;" d="M 10.675781 11.757812 C 10.902344 11.617188 10.453125 11.449219 10.21875 11.597656 C 9.992188 11.738281 10.445312 11.90625 10.675781 11.757812 Z M 10.675781 11.757812 "/>
<path style=" stroke:none;fill-rule:nonzero;fill:rgb(54.509804%,42.352941%,89.803922%);fill-opacity:1;" d="M 6.605469 14.28125 C 6.832031 14.136719 6.382812 13.972656 6.148438 14.117188 C 5.921875 14.261719 6.375 14.425781 6.605469 14.28125 Z M 6.605469 14.28125 "/>
<path style=" stroke:none;fill-rule:nonzero;fill:rgb(54.509804%,42.352941%,89.803922%);fill-opacity:1;" d="M 8.65625 1.636719 L 8.617188 1.660156 C 8.789062 1.667969 8.78125 1.796875 8.78125 2.066406 L 8.78125 8.554688 C 8.78125 8.78125 8.632812 9.0625 8.457031 9.179688 L 1.589844 13.597656 C 1.355469 13.734375 1.359375 13.738281 1.277344 13.746094 C 1.285156 13.757812 1.296875 13.769531 1.308594 13.777344 L 1.320312 13.785156 L 1.328125 13.785156 C 1.355469 13.796875 1.386719 13.792969 1.417969 13.78125 C 1.433594 13.773438 1.664062 13.640625 1.664062 13.640625 L 8.496094 9.242188 C 8.699219 9.113281 8.859375 8.808594 8.859375 8.554688 L 8.859375 2.066406 C 8.859375 1.882812 8.859375 1.78125 8.84375 1.71875 C 8.789062 1.570312 8.65625 1.636719 8.65625 1.636719 Z M 8.65625 1.636719 "/>
<path style=" stroke:none;fill-rule:nonzero;fill:rgb(54.509804%,42.352941%,89.803922%);fill-opacity:1;" d="M 7.417969 13.777344 C 7.644531 13.632812 7.195312 13.46875 6.964844 13.613281 C 6.738281 13.757812 7.1875 13.921875 7.417969 13.777344 Z M 7.417969 13.777344 "/>
<path style=" stroke:none;fill-rule:nonzero;fill:rgb(54.509804%,42.352941%,89.803922%);fill-opacity:1;" d="M 9.230469 13.726562 C 9.457031 13.582031 9.007812 13.417969 8.773438 13.5625 C 8.546875 13.707031 9 13.871094 9.230469 13.726562 Z M 9.230469 13.726562 "/>
<path style=" stroke:none;fill-rule:nonzero;fill:rgb(54.509804%,42.352941%,89.803922%);fill-opacity:1;" d="M 7.746094 13.390625 C 7.664062 13.347656 7.613281 13.28125 7.601562 13.214844 C 7.496094 13.296875 7.480469 13.402344 7.648438 13.488281 C 7.84375 13.585938 8.121094 13.617188 8.320312 13.492188 C 8.476562 13.394531 8.492188 13.316406 8.40625 13.238281 C 8.390625 13.285156 8.355469 13.332031 8.296875 13.371094 C 8.148438 13.460938 7.90625 13.46875 7.746094 13.390625 Z M 7.746094 13.390625 "/>
<path style=" stroke:none;fill-rule:nonzero;fill:rgb(54.509804%,42.352941%,89.803922%);fill-opacity:1;" d="M 6.933594 13.894531 C 6.847656 13.851562 6.796875 13.789062 6.789062 13.71875 C 6.683594 13.800781 6.664062 13.90625 6.835938 13.992188 C 7.03125 14.089844 7.308594 14.121094 7.503906 13.996094 C 7.664062 13.898438 7.679688 13.820312 7.589844 13.742188 C 7.578125 13.789062 7.542969 13.835938 7.480469 13.875 C 7.335938 13.964844 7.09375 13.972656 6.933594 13.894531 Z M 6.933594 13.894531 "/>
<path style=" stroke:none;fill-rule:nonzero;fill:rgb(54.509804%,42.352941%,89.803922%);fill-opacity:1;" d="M 8.234375 13.269531 C 8.460938 13.128906 8.007812 12.964844 7.777344 13.109375 C 7.550781 13.253906 8.003906 13.417969 8.234375 13.269531 Z M 8.234375 13.269531 "/>
<path style=" stroke:none;fill-rule:nonzero;fill:rgb(54.509804%,42.352941%,89.803922%);fill-opacity:1;" d="M 8.5625 12.882812 C 8.476562 12.84375 8.425781 12.777344 8.417969 12.710938 C 8.308594 12.792969 8.292969 12.898438 8.460938 12.984375 C 8.660156 13.082031 8.9375 13.113281 9.132812 12.988281 C 9.292969 12.890625 9.308594 12.808594 9.21875 12.734375 C 9.207031 12.78125 9.167969 12.828125 9.109375 12.867188 C 8.964844 12.957031 8.722656 12.964844 8.5625 12.882812 Z M 8.5625 12.882812 "/>
<path style=" stroke:none;fill-rule:nonzero;fill:rgb(54.509804%,42.352941%,89.803922%);fill-opacity:1;" d="M 11.671875 12.214844 C 11.898438 12.070312 11.449219 11.90625 11.21875 12.050781 C 10.992188 12.195312 11.441406 12.359375 11.671875 12.214844 Z M 11.671875 12.214844 "/>
<path style=" stroke:none;fill-rule:nonzero;fill:rgb(54.509804%,42.352941%,89.803922%);fill-opacity:1;" d="M 6.421875 13.320312 C 6.648438 13.179688 6.199219 13.011719 5.964844 13.160156 C 5.738281 13.300781 6.191406 13.464844 6.421875 13.320312 Z M 6.421875 13.320312 "/>
<path style=" stroke:none;fill-rule:nonzero;fill:rgb(54.509804%,42.352941%,89.803922%);fill-opacity:1;" d="M 5.9375 13.4375 C 5.851562 13.394531 5.800781 13.332031 5.789062 13.265625 C 5.683594 13.347656 5.667969 13.453125 5.835938 13.539062 C 6.03125 13.636719 6.3125 13.667969 6.507812 13.542969 C 6.667969 13.445312 6.683594 13.363281 6.59375 13.285156 C 6.582031 13.335938 6.542969 13.382812 6.484375 13.417969 C 6.335938 13.511719 6.097656 13.519531 5.9375 13.4375 Z M 5.9375 13.4375 "/>
<path style=" stroke:none;fill-rule:nonzero;fill:rgb(54.509804%,42.352941%,89.803922%);fill-opacity:1;" d="M 6.75 12.933594 C 6.664062 12.890625 6.617188 12.828125 6.605469 12.761719 C 6.5 12.84375 6.480469 12.949219 6.652344 13.035156 C 6.847656 13.132812 7.125 13.164062 7.324219 13.039062 C 7.480469 12.9375 7.496094 12.859375 7.40625 12.78125 C 7.394531 12.832031 7.359375 12.878906 7.296875 12.914062 C 7.152344 13.007812 6.910156 13.015625 6.75 12.933594 Z M 6.75 12.933594 "/>
<path style=" stroke:none;fill-rule:nonzero;fill:rgb(54.509804%,42.352941%,89.803922%);fill-opacity:1;" d="M 5.121094 13.941406 C 5.039062 13.898438 4.988281 13.835938 4.976562 13.769531 C 4.871094 13.851562 4.855469 13.957031 5.023438 14.042969 C 5.21875 14.140625 5.496094 14.171875 5.695312 14.046875 C 5.851562 13.949219 5.867188 13.867188 5.78125 13.792969 C 5.765625 13.839844 5.730469 13.886719 5.671875 13.921875 C 5.523438 14.015625 5.28125 14.023438 5.121094 13.941406 Z M 5.121094 13.941406 "/>
<path style=" stroke:none;fill-rule:nonzero;fill:rgb(54.509804%,42.352941%,89.803922%);fill-opacity:1;" d="M 4.792969 14.328125 C 5.019531 14.1875 4.570312 14.023438 4.339844 14.167969 C 4.113281 14.308594 4.5625 14.476562 4.792969 14.328125 Z M 4.792969 14.328125 "/>
<path style=" stroke:none;fill-rule:nonzero;fill:rgb(54.509804%,42.352941%,89.803922%);fill-opacity:1;" d="M 7.238281 12.816406 C 7.464844 12.671875 7.011719 12.507812 6.78125 12.65625 C 6.554688 12.796875 7.003906 12.960938 7.238281 12.816406 Z M 7.238281 12.816406 "/>
<path style=" stroke:none;fill-rule:nonzero;fill:rgb(54.509804%,42.352941%,89.803922%);fill-opacity:1;" d="M 9.558594 13.339844 C 9.472656 13.296875 9.425781 13.234375 9.414062 13.167969 C 9.308594 13.246094 9.289062 13.355469 9.460938 13.4375 C 9.65625 13.539062 9.933594 13.570312 10.128906 13.445312 C 10.289062 13.34375 10.304688 13.265625 10.214844 13.1875 C 10.203125 13.234375 10.167969 13.28125 10.105469 13.320312 C 9.960938 13.414062 9.71875 13.417969 9.558594 13.339844 Z M 9.558594 13.339844 "/>
<path style=" stroke:none;fill-rule:nonzero;fill:rgb(54.509804%,42.352941%,89.803922%);fill-opacity:1;" d="M 9.09375 11.523438 C 9.289062 11.621094 9.566406 11.652344 9.765625 11.527344 C 9.921875 11.425781 9.9375 11.347656 9.851562 11.269531 C 9.835938 11.320312 9.800781 11.363281 9.742188 11.402344 C 9.59375 11.496094 9.351562 11.503906 9.191406 11.421875 C 9.109375 11.378906 9.058594 11.316406 9.046875 11.25 C 8.941406 11.328125 8.925781 11.4375 9.09375 11.523438 Z M 9.09375 11.523438 "/>
<path style=" stroke:none;fill-rule:nonzero;fill:rgb(54.509804%,42.352941%,89.803922%);fill-opacity:1;" d="M 8.863281 11.808594 C 9.089844 11.664062 8.640625 11.5 8.410156 11.644531 C 8.183594 11.789062 8.632812 11.953125 8.863281 11.808594 Z M 8.863281 11.808594 "/>
<path style=" stroke:none;fill-rule:nonzero;fill:rgb(54.509804%,42.352941%,89.803922%);fill-opacity:1;" d="M 9.679688 11.304688 C 9.90625 11.160156 9.453125 10.996094 9.222656 11.140625 C 8.996094 11.285156 9.449219 11.449219 9.679688 11.304688 Z M 9.679688 11.304688 "/>
<path style=" stroke:none;fill-rule:nonzero;fill:rgb(54.509804%,42.352941%,89.803922%);fill-opacity:1;" d="M 8.050781 12.3125 C 8.277344 12.167969 7.824219 12.003906 7.59375 12.152344 C 7.367188 12.292969 7.820312 12.457031 8.050781 12.3125 Z M 8.050781 12.3125 "/>
<path style=" stroke:none;fill-rule:nonzero;fill:rgb(54.509804%,42.352941%,89.803922%);fill-opacity:1;" d="M 7.5625 12.429688 C 7.480469 12.386719 7.429688 12.324219 7.417969 12.257812 C 7.3125 12.335938 7.296875 12.445312 7.464844 12.53125 C 7.660156 12.628906 7.9375 12.660156 8.136719 12.535156 C 8.292969 12.433594 8.3125 12.355469 8.222656 12.277344 C 8.207031 12.328125 8.171875 12.371094 8.113281 12.410156 C 7.964844 12.503906 7.722656 12.511719 7.5625 12.429688 Z M 7.5625 12.429688 "/>
<path style=" stroke:none;fill-rule:nonzero;fill:rgb(54.509804%,42.352941%,89.803922%);fill-opacity:1;" d="M 8.378906 11.925781 C 8.292969 11.882812 8.242188 11.820312 8.234375 11.753906 C 8.128906 11.832031 8.109375 11.941406 8.277344 12.027344 C 8.476562 12.125 8.753906 12.15625 8.949219 12.03125 C 9.109375 11.929688 9.125 11.851562 9.035156 11.773438 C 9.023438 11.824219 8.988281 11.867188 8.925781 11.90625 C 8.78125 12 8.539062 12.007812 8.378906 11.925781 Z M 8.378906 11.925781 "/>
<path style=" stroke:none;fill-rule:nonzero;fill:rgb(54.509804%,42.352941%,89.803922%);fill-opacity:1;" d="M 5.609375 13.824219 C 5.835938 13.683594 5.382812 13.515625 5.152344 13.664062 C 4.925781 13.804688 5.378906 13.972656 5.609375 13.824219 Z M 5.609375 13.824219 "/>
<path style=" stroke:none;fill-rule:nonzero;fill:rgb(54.509804%,42.352941%,89.803922%);fill-opacity:1;" d="M 10.554688 13.792969 C 10.472656 13.75 10.421875 13.6875 10.410156 13.621094 C 10.304688 13.703125 10.289062 13.808594 10.457031 13.894531 C 10.652344 13.992188 10.929688 14.023438 11.128906 13.898438 C 11.285156 13.800781 11.300781 13.71875 11.214844 13.640625 C 11.199219 13.691406 11.164062 13.738281 11.105469 13.773438 C 10.957031 13.867188 10.714844 13.875 10.554688 13.792969 Z M 10.554688 13.792969 "/>
<path style=" stroke:none;fill-rule:nonzero;fill:rgb(54.509804%,42.352941%,89.803922%);fill-opacity:1;" d="M 10.226562 14.179688 C 10.453125 14.039062 10.003906 13.871094 9.773438 14.019531 C 9.546875 14.160156 9.996094 14.328125 10.226562 14.179688 Z M 10.226562 14.179688 "/>
<path style=" stroke:none;fill-rule:nonzero;fill:rgb(54.509804%,42.352941%,89.803922%);fill-opacity:1;" d="M 11.085938 12.429688 C 11.285156 12.53125 11.5625 12.558594 11.757812 12.4375 C 11.917969 12.335938 11.933594 12.257812 11.84375 12.179688 C 11.832031 12.226562 11.796875 12.273438 11.734375 12.3125 C 11.589844 12.40625 11.347656 12.410156 11.1875 12.332031 C 11.101562 12.289062 11.050781 12.226562 11.042969 12.160156 C 10.9375 12.238281 10.917969 12.347656 11.085938 12.429688 Z M 11.085938 12.429688 "/>
<path style=" stroke:none;fill-rule:nonzero;fill:rgb(54.509804%,42.352941%,89.803922%);fill-opacity:1;" d="M 10.375 12.835938 C 10.289062 12.792969 10.238281 12.730469 10.226562 12.664062 C 10.121094 12.742188 10.105469 12.851562 10.273438 12.933594 C 10.46875 13.035156 10.746094 13.0625 10.945312 12.941406 C 11.101562 12.839844 11.117188 12.761719 11.03125 12.683594 C 11.015625 12.730469 10.980469 12.777344 10.921875 12.816406 C 10.773438 12.910156 10.53125 12.914062 10.375 12.835938 Z M 10.375 12.835938 "/>
<path style=" stroke:none;fill-rule:nonzero;fill:rgb(54.509804%,42.352941%,89.803922%);fill-opacity:1;" d="M 10.859375 12.71875 C 11.085938 12.574219 10.636719 12.410156 10.402344 12.554688 C 10.175781 12.699219 10.628906 12.863281 10.859375 12.71875 Z M 10.859375 12.71875 "/>
<path style=" stroke:none;fill-rule:nonzero;fill:rgb(54.509804%,42.352941%,89.803922%);fill-opacity:1;" d="M 11.042969 13.675781 C 11.269531 13.535156 10.816406 13.367188 10.585938 13.515625 C 10.359375 13.65625 10.8125 13.824219 11.042969 13.675781 Z M 11.042969 13.675781 "/>
<path style=" stroke:none;fill-rule:nonzero;fill:rgb(54.509804%,42.352941%,89.803922%);fill-opacity:1;" d="M 12.671875 12.667969 C 12.898438 12.523438 12.445312 12.359375 12.214844 12.507812 C 11.988281 12.648438 12.4375 12.8125 12.671875 12.667969 Z M 12.671875 12.667969 "/>
<path style=" stroke:none;fill-rule:nonzero;fill:rgb(54.509804%,42.352941%,89.803922%);fill-opacity:1;" d="M 10.046875 13.222656 C 10.273438 13.078125 9.820312 12.914062 9.589844 13.058594 C 9.363281 13.203125 9.8125 13.367188 10.046875 13.222656 Z M 10.046875 13.222656 "/>
<path style=" stroke:none;fill-rule:nonzero;fill:rgb(54.509804%,42.352941%,89.803922%);fill-opacity:1;" d="M 12.085938 12.886719 C 12.28125 12.984375 12.558594 13.015625 12.757812 12.890625 C 12.914062 12.789062 12.929688 12.710938 12.84375 12.632812 C 12.828125 12.683594 12.792969 12.730469 12.734375 12.765625 C 12.585938 12.859375 12.34375 12.867188 12.183594 12.785156 C 12.101562 12.742188 12.050781 12.679688 12.039062 12.613281 C 11.933594 12.695312 11.914062 12.800781 12.085938 12.886719 Z M 12.085938 12.886719 "/>
<path style=" stroke:none;fill-rule:nonzero;fill:rgb(54.509804%,42.352941%,89.803922%);fill-opacity:1;" d="M 11.371094 13.289062 C 11.285156 13.246094 11.234375 13.183594 11.222656 13.117188 C 11.117188 13.199219 11.101562 13.304688 11.269531 13.390625 C 11.46875 13.488281 11.746094 13.519531 11.941406 13.394531 C 12.101562 13.292969 12.117188 13.214844 12.027344 13.136719 C 12.015625 13.1875 11.976562 13.234375 11.917969 13.269531 C 11.773438 13.363281 11.53125 13.371094 11.371094 13.289062 Z M 11.371094 13.289062 "/>
<path style=" stroke:none;fill-rule:nonzero;fill:rgb(54.509804%,42.352941%,89.803922%);fill-opacity:1;" d="M 11.855469 13.171875 C 12.082031 13.027344 11.632812 12.863281 11.402344 13.011719 C 11.175781 13.152344 11.625 13.316406 11.855469 13.171875 Z M 11.855469 13.171875 "/>
<path style=" stroke:none;fill-rule:nonzero;fill:rgb(54.509804%,42.352941%,89.803922%);fill-opacity:1;" d="M 5.011719 15.402344 C 4.863281 15.480469 4.640625 15.480469 4.492188 15.40625 C 4.488281 15.40625 4.488281 15.402344 4.484375 15.402344 C 4.402344 15.359375 4.355469 15.296875 4.34375 15.234375 C 4.28125 15.28125 4.25 15.34375 4.273438 15.402344 C 4.289062 15.4375 4.328125 15.472656 4.390625 15.503906 C 4.589844 15.605469 4.867188 15.636719 5.0625 15.511719 C 5.125 15.472656 5.164062 15.4375 5.183594 15.402344 C 5.21875 15.347656 5.203125 15.300781 5.148438 15.253906 C 5.136719 15.300781 5.097656 15.347656 5.039062 15.386719 C 5.03125 15.390625 5.019531 15.398438 5.011719 15.402344 Z M 5.011719 15.402344 "/>
<g clip-path="url(#clip3)" clip-rule="nonzero">
<path style=" stroke:none;fill-rule:nonzero;fill:rgb(54.509804%,42.352941%,89.803922%);fill-opacity:1;" d="M 16.386719 13.8125 L 9.144531 10.167969 C 9.050781 10.117188 8.972656 10.089844 8.902344 10.078125 L 8.902344 10.050781 L 9.148438 9.894531 C 9.335938 9.773438 9.488281 9.484375 9.488281 9.246094 L 9.488281 0.457031 C 9.488281 0.316406 9.433594 0.230469 9.355469 0.207031 C 9.101562 0.101562 8.863281 -0.03125 8.578125 0.113281 L 8.441406 0.1875 L 0.488281 5.300781 C 0.28125 5.433594 0.121094 5.746094 0.121094 6.003906 L 0.121094 14.796875 C 0.132812 15.144531 0.304688 15.15625 0.5625 15.265625 L 0.644531 15.296875 C 0.636719 15.328125 0.632812 15.363281 0.625 15.402344 C 0.609375 15.484375 0.597656 15.582031 0.585938 15.679688 C 0.570312 15.835938 0.679688 15.964844 0.664062 16.121094 L 0.65625 16.199219 C 0.648438 16.265625 0.664062 16.328125 0.730469 16.359375 L 3.511719 17.757812 L 7.976562 20.003906 C 8.195312 20.113281 8.523438 20.101562 8.722656 19.976562 L 12.242188 17.757812 L 15.972656 15.402344 L 16.328125 15.179688 C 16.453125 15.097656 16.464844 14.785156 16.480469 14.652344 C 16.515625 14.613281 16.511719 14.535156 16.511719 14.535156 L 16.515625 14.460938 L 16.539062 14.03125 C 16.542969 14.019531 16.542969 14.007812 16.542969 13.996094 C 16.539062 13.925781 16.488281 13.863281 16.386719 13.8125 Z M 13.230469 15.644531 L 11.132812 16.972656 C 11.054688 17.015625 11.019531 17.042969 10.890625 16.972656 L 8.984375 15.960938 C 8.902344 15.917969 8.898438 15.863281 8.945312 15.828125 L 11.074219 14.488281 C 11.152344 14.441406 11.238281 14.5 11.269531 14.515625 C 11.269531 14.515625 13.246094 15.570312 13.25 15.574219 C 13.273438 15.589844 13.277344 15.617188 13.230469 15.644531 Z M 12.113281 12.4375 C 12.125 12.425781 12.136719 12.417969 12.152344 12.40625 C 12.300781 12.316406 12.542969 12.308594 12.699219 12.386719 C 12.746094 12.410156 12.78125 12.4375 12.804688 12.46875 C 13.03125 12.585938 13.125 12.796875 12.816406 12.988281 C 12.550781 13.15625 12.152344 13.09375 11.957031 12.9375 C 11.96875 12.949219 11.980469 12.960938 11.988281 12.972656 C 12.214844 13.089844 12.308594 13.300781 12.003906 13.492188 C 11.738281 13.660156 11.339844 13.597656 11.144531 13.445312 C 11.15625 13.453125 11.167969 13.464844 11.175781 13.476562 C 11.402344 13.59375 11.496094 13.804688 11.191406 13.996094 C 10.921875 14.164062 10.523438 14.101562 10.328125 13.949219 C 10.339844 13.957031 10.351562 13.96875 10.363281 13.980469 C 10.574219 14.089844 10.667969 14.28125 10.433594 14.460938 C 10.417969 14.476562 10.398438 14.488281 10.375 14.5 C 10.113281 14.667969 9.726562 14.609375 9.527344 14.460938 C 9.523438 14.457031 9.519531 14.457031 9.515625 14.453125 C 9.519531 14.453125 9.519531 14.457031 9.523438 14.460938 C 9.53125 14.46875 9.539062 14.476562 9.546875 14.484375 C 9.773438 14.601562 9.867188 14.8125 9.5625 15.007812 C 9.296875 15.175781 8.894531 15.109375 8.699219 14.957031 C 8.714844 14.96875 8.722656 14.980469 8.734375 14.992188 C 8.917969 15.085938 9.015625 15.242188 8.878906 15.402344 C 8.847656 15.4375 8.804688 15.476562 8.746094 15.511719 C 8.480469 15.679688 8.082031 15.613281 7.886719 15.460938 C 7.898438 15.472656 7.910156 15.484375 7.917969 15.496094 C 8.144531 15.613281 8.238281 15.824219 7.933594 16.015625 C 7.667969 16.183594 7.269531 16.121094 7.074219 15.964844 C 7.085938 15.976562 7.097656 15.988281 7.105469 16 C 7.332031 16.117188 7.425781 16.328125 7.121094 16.519531 C 6.851562 16.6875 6.453125 16.625 6.257812 16.46875 C 6.269531 16.480469 6.28125 16.492188 6.292969 16.503906 C 6.519531 16.621094 6.609375 16.832031 6.304688 17.023438 C 5.828125 17.324219 4.933594 16.882812 5.523438 16.511719 C 5.546875 16.496094 5.574219 16.484375 5.601562 16.46875 C 5.613281 16.460938 5.625 16.449219 5.640625 16.441406 C 5.785156 16.351562 6.027344 16.34375 6.1875 16.421875 C 6.210938 16.433594 6.226562 16.445312 6.246094 16.457031 C 6.105469 16.339844 6.085938 16.167969 6.335938 16.007812 C 6.363281 15.992188 6.386719 15.976562 6.414062 15.964844 C 6.425781 15.957031 6.441406 15.945312 6.453125 15.9375 C 6.601562 15.84375 6.84375 15.839844 7.003906 15.917969 C 7.023438 15.929688 7.042969 15.941406 7.058594 15.953125 C 6.917969 15.832031 6.898438 15.664062 7.148438 15.503906 C 7.175781 15.488281 7.203125 15.472656 7.230469 15.460938 C 7.242188 15.453125 7.253906 15.441406 7.269531 15.433594 C 7.285156 15.421875 7.308594 15.410156 7.328125 15.402344 C 7.464844 15.34375 7.652344 15.34375 7.792969 15.402344 C 7.800781 15.40625 7.808594 15.410156 7.816406 15.414062 C 7.835938 15.425781 7.855469 15.4375 7.875 15.449219 C 7.855469 15.433594 7.839844 15.417969 7.828125 15.402344 C 7.730469 15.289062 7.742188 15.140625 7.964844 15 C 7.988281 14.984375 8.015625 14.96875 8.042969 14.957031 C 8.054688 14.949219 8.066406 14.9375 8.082031 14.929688 C 8.230469 14.835938 8.472656 14.828125 8.628906 14.910156 C 8.652344 14.921875 8.671875 14.933594 8.6875 14.945312 C 8.546875 14.824219 8.527344 14.652344 8.777344 14.496094 C 8.796875 14.484375 8.820312 14.472656 8.839844 14.460938 C 8.847656 14.457031 8.851562 14.457031 8.859375 14.453125 C 8.871094 14.445312 8.882812 14.433594 8.898438 14.425781 C 9.042969 14.332031 9.285156 14.324219 9.445312 14.40625 C 9.464844 14.417969 9.484375 14.429688 9.5 14.441406 C 9.359375 14.320312 9.339844 14.148438 9.59375 13.992188 C 9.617188 13.976562 9.644531 13.960938 9.671875 13.949219 C 9.683594 13.941406 9.695312 13.929688 9.710938 13.921875 C 9.855469 13.828125 10.097656 13.820312 10.257812 13.902344 C 10.28125 13.914062 10.300781 13.925781 10.316406 13.9375 C 10.175781 13.816406 10.15625 13.644531 10.40625 13.488281 C 10.433594 13.472656 10.457031 13.457031 10.484375 13.445312 C 10.496094 13.433594 10.511719 13.425781 10.523438 13.417969 C 10.671875 13.324219 10.914062 13.316406 11.074219 13.398438 C 11.09375 13.410156 11.113281 13.421875 11.128906 13.433594 C 10.988281 13.3125 10.96875 13.140625 11.21875 12.984375 C 11.246094 12.96875 11.273438 12.953125 11.300781 12.941406 C 11.3125 12.929688 11.324219 12.921875 11.339844 12.914062 C 11.484375 12.820312 11.726562 12.8125 11.886719 12.894531 C 11.90625 12.90625 11.925781 12.917969 11.945312 12.929688 C 11.800781 12.808594 11.78125 12.636719 12.035156 12.480469 C 12.058594 12.460938 12.085938 12.449219 12.113281 12.4375 Z M 11.117188 11.980469 C 11.128906 11.972656 11.140625 11.960938 11.15625 11.953125 C 11.300781 11.859375 11.542969 11.851562 11.703125 11.933594 C 11.746094 11.957031 11.78125 11.984375 11.808594 12.015625 C 12.035156 12.132812 12.125 12.34375 11.820312 12.535156 C 11.554688 12.703125 11.15625 12.640625 10.960938 12.484375 C 10.972656 12.496094 10.984375 12.507812 10.992188 12.519531 C 11.21875 12.636719 11.3125 12.847656 11.007812 13.039062 C 10.738281 13.207031 10.339844 13.144531 10.144531 12.988281 C 10.15625 13 10.167969 13.011719 10.179688 13.023438 C 10.40625 13.140625 10.496094 13.351562 10.191406 13.542969 C 9.925781 13.710938 9.527344 13.648438 9.332031 13.492188 C 9.34375 13.503906 9.355469 13.515625 9.363281 13.527344 C 9.589844 13.644531 9.683594 13.855469 9.378906 14.046875 C 9.113281 14.214844 8.714844 14.152344 8.519531 13.996094 C 8.53125 14.007812 8.539062 14.019531 8.550781 14.03125 C 8.742188 14.128906 8.835938 14.296875 8.679688 14.460938 C 8.648438 14.492188 8.613281 14.523438 8.566406 14.550781 C 8.296875 14.71875 7.898438 14.65625 7.703125 14.503906 C 7.714844 14.511719 7.726562 14.523438 7.738281 14.535156 C 7.964844 14.652344 8.054688 14.863281 7.75 15.054688 C 7.484375 15.222656 7.085938 15.160156 6.890625 15.007812 C 6.902344 15.015625 6.914062 15.027344 6.921875 15.039062 C 7.089844 15.125 7.183594 15.261719 7.101562 15.402344 C 7.070312 15.457031 7.019531 15.507812 6.9375 15.558594 C 6.667969 15.730469 6.269531 15.664062 6.074219 15.511719 C 6.089844 15.519531 6.097656 15.53125 6.109375 15.542969 C 6.335938 15.660156 6.425781 15.871094 6.121094 16.0625 C 5.855469 16.234375 5.457031 16.167969 5.261719 16.015625 C 5.273438 16.027344 5.285156 16.039062 5.292969 16.050781 C 5.519531 16.164062 5.613281 16.375 5.308594 16.570312 C 4.832031 16.871094 3.933594 16.429688 4.523438 16.058594 C 4.550781 16.042969 4.578125 16.027344 4.605469 16.015625 C 4.617188 16.007812 4.628906 15.996094 4.644531 15.988281 C 4.789062 15.894531 5.03125 15.886719 5.191406 15.96875 C 5.210938 15.980469 5.230469 15.992188 5.246094 16.003906 C 5.105469 15.882812 5.085938 15.710938 5.339844 15.554688 C 5.363281 15.539062 5.390625 15.523438 5.417969 15.511719 C 5.429688 15.5 5.441406 15.492188 5.457031 15.484375 C 5.605469 15.390625 5.84375 15.382812 6.003906 15.464844 C 6.027344 15.476562 6.046875 15.488281 6.0625 15.5 C 6.027344 15.46875 6 15.4375 5.984375 15.402344 C 5.925781 15.296875 5.960938 15.167969 6.152344 15.050781 C 6.179688 15.035156 6.203125 15.019531 6.230469 15.007812 C 6.242188 14.996094 6.257812 14.988281 6.269531 14.980469 C 6.417969 14.886719 6.660156 14.878906 6.820312 14.960938 C 6.839844 14.96875 6.859375 14.984375 6.875 14.996094 C 6.734375 14.875 6.714844 14.703125 6.96875 14.546875 C 6.992188 14.527344 7.019531 14.515625 7.046875 14.503906 C 7.058594 14.492188 7.070312 14.484375 7.085938 14.476562 C 7.09375 14.46875 7.101562 14.464844 7.109375 14.460938 C 7.253906 14.382812 7.480469 14.378906 7.632812 14.457031 C 7.636719 14.457031 7.640625 14.460938 7.644531 14.460938 L 7.660156 14.460938 C 7.546875 14.34375 7.550781 14.1875 7.78125 14.039062 C 7.804688 14.023438 7.832031 14.011719 7.859375 14 C 7.871094 13.988281 7.886719 13.980469 7.898438 13.96875 C 8.046875 13.878906 8.289062 13.871094 8.449219 13.953125 C 8.46875 13.960938 8.488281 13.972656 8.503906 13.988281 C 8.363281 13.867188 8.34375 13.695312 8.59375 13.535156 C 8.621094 13.519531 8.648438 13.507812 8.675781 13.496094 C 8.6875 13.484375 8.699219 13.476562 8.714844 13.464844 C 8.859375 13.375 9.101562 13.367188 9.261719 13.449219 C 9.28125 13.457031 9.300781 13.46875 9.320312 13.484375 C 9.175781 13.363281 9.15625 13.191406 9.410156 13.03125 C 9.433594 13.015625 9.460938 13.003906 9.488281 12.992188 C 9.5 12.980469 9.511719 12.972656 9.527344 12.960938 C 9.675781 12.871094 9.914062 12.863281 10.074219 12.941406 C 10.097656 12.953125 10.117188 12.964844 10.132812 12.980469 C 9.992188 12.859375 9.972656 12.6875 10.222656 12.527344 C 10.25 12.511719 10.277344 12.5 10.304688 12.488281 C 10.3125 12.476562 10.328125 12.46875 10.339844 12.457031 C 10.488281 12.367188 10.730469 12.359375 10.890625 12.4375 C 10.910156 12.449219 10.929688 12.460938 10.945312 12.472656 C 10.804688 12.355469 10.785156 12.183594 11.039062 12.023438 C 11.0625 12.007812 11.089844 11.992188 11.117188 11.980469 Z M 10.121094 11.527344 C 10.132812 11.515625 10.144531 11.507812 10.160156 11.5 C 10.304688 11.40625 10.546875 11.398438 10.707031 11.480469 C 10.75 11.5 10.785156 11.527344 10.808594 11.558594 C 11.035156 11.675781 11.128906 11.886719 10.824219 12.078125 C 10.558594 12.246094 10.15625 12.183594 9.960938 12.03125 C 9.976562 12.039062 9.984375 12.050781 9.996094 12.0625 C 10.222656 12.179688 10.316406 12.390625 10.007812 12.585938 C 9.742188 12.753906 9.34375 12.6875 9.148438 12.535156 C 9.160156 12.546875 9.171875 12.554688 9.179688 12.570312 C 9.40625 12.683594 9.5 12.894531 9.195312 13.089844 C 8.929688 13.257812 8.53125 13.191406 8.335938 13.039062 C 8.347656 13.050781 8.359375 13.0625 8.367188 13.074219 C 8.59375 13.191406 8.6875 13.398438 8.382812 13.59375 C 8.113281 13.761719 7.714844 13.695312 7.519531 13.542969 C 7.53125 13.554688 7.542969 13.566406 7.554688 13.578125 C 7.78125 13.695312 7.871094 13.90625 7.566406 14.097656 C 7.300781 14.265625 6.902344 14.203125 6.707031 14.046875 C 6.71875 14.058594 6.730469 14.070312 6.738281 14.082031 C 6.910156 14.171875 7.007812 14.3125 6.90625 14.460938 C 6.875 14.507812 6.828125 14.554688 6.753906 14.601562 C 6.484375 14.769531 6.085938 14.707031 5.890625 14.550781 C 5.90625 14.5625 5.914062 14.574219 5.925781 14.585938 C 6.152344 14.703125 6.242188 14.914062 5.9375 15.105469 C 5.671875 15.273438 5.273438 15.210938 5.078125 15.054688 C 5.089844 15.066406 5.101562 15.078125 5.109375 15.089844 C 5.257812 15.164062 5.347656 15.28125 5.3125 15.402344 C 5.292969 15.472656 5.234375 15.542969 5.125 15.609375 C 4.859375 15.777344 4.460938 15.714844 4.265625 15.558594 C 4.277344 15.570312 4.289062 15.582031 4.296875 15.59375 C 4.523438 15.710938 4.617188 15.921875 4.3125 16.113281 C 3.835938 16.414062 2.9375 15.976562 3.527344 15.601562 C 3.554688 15.585938 3.578125 15.574219 3.605469 15.5625 C 3.617188 15.550781 3.632812 15.542969 3.644531 15.53125 C 3.792969 15.441406 4.035156 15.433594 4.195312 15.515625 C 4.214844 15.523438 4.234375 15.535156 4.25 15.550781 C 4.199219 15.507812 4.164062 15.457031 4.152344 15.402344 C 4.128906 15.308594 4.179688 15.199219 4.339844 15.097656 C 4.367188 15.082031 4.394531 15.070312 4.421875 15.058594 C 4.433594 15.046875 4.445312 15.039062 4.460938 15.027344 C 4.605469 14.9375 4.847656 14.929688 5.007812 15.007812 C 5.027344 15.019531 5.046875 15.03125 5.066406 15.046875 C 4.921875 14.925781 4.902344 14.753906 5.15625 14.59375 C 5.179688 14.578125 5.207031 14.566406 5.234375 14.554688 C 5.246094 14.542969 5.257812 14.535156 5.273438 14.523438 C 5.320312 14.496094 5.378906 14.472656 5.4375 14.460938 C 5.519531 14.445312 5.609375 14.445312 5.691406 14.460938 C 5.738281 14.472656 5.78125 14.484375 5.820312 14.503906 C 5.84375 14.515625 5.863281 14.527344 5.878906 14.539062 C 5.851562 14.515625 5.828125 14.488281 5.808594 14.460938 C 5.742188 14.351562 5.769531 14.21875 5.96875 14.089844 C 5.996094 14.074219 6.023438 14.0625 6.050781 14.046875 C 6.0625 14.039062 6.074219 14.03125 6.089844 14.019531 C 6.234375 13.929688 6.476562 13.921875 6.636719 14 C 6.65625 14.011719 6.675781 14.023438 6.691406 14.035156 C 6.550781 13.917969 6.53125 13.746094 6.785156 13.585938 C 6.808594 13.570312 6.835938 13.554688 6.863281 13.542969 C 6.875 13.535156 6.886719 13.523438 6.902344 13.515625 C 7.046875 13.421875 7.289062 13.417969 7.449219 13.496094 C 7.472656 13.507812 7.488281 13.519531 7.507812 13.53125 C 7.367188 13.410156 7.347656 13.242188 7.597656 13.082031 C 7.625 13.066406 7.648438 13.050781 7.675781 13.039062 C 7.6875 13.03125 7.703125 13.019531 7.714844 13.011719 C 7.863281 12.917969 8.105469 12.914062 8.265625 12.992188 C 8.285156 13.003906 8.304688 13.015625 8.320312 13.027344 C 8.179688 12.90625 8.160156 12.738281 8.410156 12.578125 C 8.4375 12.5625 8.464844 12.546875 8.492188 12.535156 C 8.503906 12.527344 8.515625 12.515625 8.53125 12.507812 C 8.675781 12.414062 8.917969 12.410156 9.078125 12.488281 C 9.097656 12.5 9.117188 12.511719 9.136719 12.523438 C 8.992188 12.402344 8.972656 12.234375 9.226562 12.074219 C 9.25 12.058594 9.277344 12.042969 9.304688 12.03125 C 9.316406 12.023438 9.328125 12.011719 9.34375 12.003906 C 9.492188 11.910156 9.734375 11.902344 9.890625 11.984375 C 9.914062 11.996094 9.933594 12.007812 9.949219 12.019531 C 9.808594 11.898438 9.789062 11.726562 10.039062 11.570312 C 10.066406 11.550781 10.09375 11.539062 10.121094 11.527344 Z M 9.042969 11.113281 C 9.066406 11.097656 9.09375 11.085938 9.121094 11.070312 C 9.132812 11.0625 9.148438 11.050781 9.160156 11.042969 C 9.308594 10.953125 9.550781 10.945312 9.710938 11.023438 C 9.753906 11.046875 9.789062 11.074219 9.8125 11.105469 C 10.039062 11.222656 10.132812 11.433594 9.828125 11.625 C 9.558594 11.792969 9.160156 11.730469 8.964844 11.574219 C 8.976562 11.585938 8.988281 11.597656 9 11.609375 C 9.226562 11.726562 9.316406 11.9375 9.011719 12.128906 C 8.746094 12.296875 8.347656 12.234375 8.152344 12.078125 C 8.164062 12.089844 8.175781 12.101562 8.183594 12.113281 C 8.410156 12.230469 8.503906 12.441406 8.199219 12.632812 C 7.929688 12.800781 7.53125 12.738281 7.335938 12.585938 C 7.347656 12.59375 7.359375 12.605469 7.371094 12.617188 C 7.597656 12.734375 7.6875 12.945312 7.382812 13.136719 C 7.117188 13.304688 6.71875 13.242188 6.523438 13.089844 C 6.535156 13.097656 6.546875 13.109375 6.554688 13.121094 C 6.78125 13.238281 6.875 13.449219 6.570312 13.640625 C 6.304688 13.808594 5.90625 13.746094 5.710938 13.59375 C 5.722656 13.601562 5.730469 13.613281 5.742188 13.625 C 5.96875 13.742188 6.0625 13.953125 5.757812 14.148438 C 5.488281 14.316406 5.089844 14.25 4.894531 14.097656 C 4.90625 14.109375 4.917969 14.121094 4.929688 14.132812 C 5.082031 14.210938 5.171875 14.332031 5.121094 14.460938 C 5.097656 14.523438 5.042969 14.589844 4.941406 14.652344 C 4.675781 14.820312 4.277344 14.753906 4.082031 14.601562 C 4.09375 14.613281 4.105469 14.625 4.113281 14.636719 C 4.339844 14.753906 4.433594 14.964844 4.128906 15.15625 C 3.859375 15.324219 3.460938 15.261719 3.265625 15.105469 C 3.277344 15.117188 3.289062 15.128906 3.300781 15.140625 C 3.425781 15.207031 3.511719 15.300781 3.507812 15.402344 C 3.503906 15.484375 3.449219 15.574219 3.3125 15.660156 C 2.945312 15.890625 2.328125 15.683594 2.335938 15.402344 C 2.339844 15.320312 2.394531 15.234375 2.53125 15.148438 C 2.554688 15.132812 2.582031 15.117188 2.609375 15.105469 C 2.621094 15.097656 2.632812 15.085938 2.648438 15.078125 C 2.792969 14.984375 3.035156 14.980469 3.195312 15.058594 C 3.21875 15.070312 3.238281 15.082031 3.253906 15.09375 C 3.113281 14.972656 3.09375 14.804688 3.34375 14.644531 C 3.371094 14.628906 3.394531 14.613281 3.421875 14.601562 C 3.433594 14.59375 3.449219 14.582031 3.460938 14.574219 C 3.609375 14.480469 3.851562 14.476562 4.011719 14.554688 C 4.03125 14.566406 4.050781 14.578125 4.066406 14.589844 C 4.023438 14.550781 3.988281 14.507812 3.972656 14.460938 C 3.941406 14.363281 3.988281 14.246094 4.160156 14.140625 C 4.183594 14.125 4.210938 14.109375 4.238281 14.097656 C 4.25 14.089844 4.261719 14.078125 4.277344 14.070312 C 4.421875 13.976562 4.664062 13.96875 4.824219 14.050781 C 4.847656 14.0625 4.863281 14.074219 4.882812 14.085938 C 4.738281 13.964844 4.722656 13.792969 4.972656 13.636719 C 4.996094 13.621094 5.023438 13.605469 5.050781 13.59375 C 5.0625 13.585938 5.078125 13.574219 5.089844 13.566406 C 5.238281 13.472656 5.480469 13.464844 5.640625 13.546875 C 5.660156 13.558594 5.679688 13.570312 5.695312 13.582031 C 5.554688 13.460938 5.535156 13.289062 5.785156 13.132812 C 5.8125 13.117188 5.839844 13.101562 5.867188 13.089844 C 5.878906 13.078125 5.890625 13.070312 5.90625 13.0625 C 6.050781 12.96875 6.292969 12.960938 6.453125 13.042969 C 6.472656 13.054688 6.492188 13.066406 6.507812 13.078125 C 6.367188 12.957031 6.347656 12.785156 6.601562 12.628906 C 6.625 12.613281 6.652344 12.597656 6.679688 12.585938 C 6.691406 12.574219 6.703125 12.566406 6.71875 12.558594 C 6.867188 12.464844 7.105469 12.457031 7.265625 12.539062 C 7.289062 12.546875 7.308594 12.5625 7.324219 12.574219 C 7.183594 12.453125 7.164062 12.28125 7.414062 12.125 C 7.441406 12.105469 7.464844 12.09375 7.492188 12.082031 C 7.503906 12.070312 7.519531 12.0625 7.53125 12.054688 C 7.679688 11.960938 7.921875 11.953125 8.082031 12.035156 C 8.101562 12.042969 8.121094 12.054688 8.136719 12.070312 C 7.996094 11.949219 7.976562 11.777344 8.230469 11.617188 C 8.253906 11.601562 8.28125 11.589844 8.308594 11.578125 C 8.320312 11.566406 8.332031 11.558594 8.347656 11.550781 C 8.492188 11.457031 8.734375 11.449219 8.894531 11.53125 C 8.917969 11.539062 8.933594 11.550781 8.953125 11.566406 C 8.808594 11.445312 8.792969 11.273438 9.042969 11.113281 Z M 8.984375 8.613281 C 8.984375 8.875 8.816406 9.195312 8.605469 9.332031 L 1.5625 13.863281 C 1.3125 14.023438 1.101562 13.875 1.101562 13.585938 L 1.101562 6.824219 C 1.101562 6.558594 1.265625 6.238281 1.480469 6.101562 L 8.519531 1.570312 C 8.773438 1.410156 8.984375 1.5625 8.984375 1.851562 Z M 16.496094 14.054688 C 16.496094 14.054688 16.492188 14.0625 16.484375 14.078125 C 16.398438 14.214844 16.121094 14.375 15.996094 14.449219 L 8.734375 19.027344 C 8.558594 19.140625 8.257812 19.148438 8.0625 19.050781 L 5.492188 17.757812 L 0.820312 15.40625 C 0.816406 15.40625 0.816406 15.402344 0.8125 15.402344 C 0.796875 15.394531 0.78125 15.386719 0.769531 15.375 C 0.703125 15.320312 0.707031 15.289062 0.703125 15.234375 C 0.703125 15.21875 0.679688 15.199219 0.644531 15.164062 C 0.613281 15.121094 0.597656 15.058594 0.597656 14.976562 L 0.597656 6.1875 C 0.597656 5.949219 0.75 5.660156 0.9375 5.539062 L 9.066406 0.308594 L 9.117188 0.277344 L 9.230469 0.203125 C 9.308594 0.15625 9.378906 0.273438 9.304688 0.320312 L 9.167969 0.40625 L 9.136719 0.425781 L 1.011719 5.652344 C 0.867188 5.746094 0.734375 5.992188 0.734375 6.1875 L 0.734375 14.976562 C 0.734375 15.121094 0.773438 15.121094 0.851562 15.070312 L 8.40625 10.210938 L 8.679688 10.039062 C 8.757812 9.992188 8.832031 10.109375 8.753906 10.15625 L 8.429688 10.355469 L 0.925781 15.183594 C 0.910156 15.195312 0.894531 15.203125 0.878906 15.210938 L 0.851562 15.222656 L 0.8125 15.238281 C 0.832031 15.253906 0.851562 15.269531 0.878906 15.285156 L 1.117188 15.402344 L 5.796875 17.757812 L 8.125 18.929688 C 8.28125 19.007812 8.53125 18.996094 8.660156 18.914062 L 10.492188 17.757812 L 14.226562 15.402344 L 16.140625 14.195312 L 16.207031 14.152344 C 16.253906 14.117188 16.332031 14.0625 16.367188 14.007812 C 16.402344 13.917969 16.53125 13.972656 16.496094 14.054688 Z M 16.496094 14.054688 "/>
</g>
</g>
</svg>
